# xmcd
#
# Track frame offsets:
#	150
#	12734
#	29234
#	42134
#	58746
#	69188
#	90185
#	99002
#	116753
#	128250
#	138402
#	153036
#
# Disc length: 2222 seconds
#
# Revision: 0
# Processed by: cddbd v1.4PL0 Copyright (c) Steve Scherf et al.
# Submitted via: EasyCDDAExtractor 4.6.9.1
#
DISCID=8e08ac0c
DTITLE=Ray Charles - Greatest Hits Vol 1
DYEAR=1900
DGENRE=Blues
TTITLE0=Them That Got
TTITLE1=Georgia On My Mind
TTITLE2=Unchain My Heart
TTITLE3=I'm Gonna Move To The Outskirts Of Town
TTITLE4=The Danger Zone
TTITLE5=I've Got News For You
TTITLE6=Hit The Road Jack
TTITLE7=Ruby
TTITLE8=I Wonder
TTITLE9=Sticks And Stones
TTITLE10=But On The Other Hand Baby
TTITLE11=One Mint Julep
EXTD=
EXTT0=
EXTT1=
EXTT2=
EXTT3=
EXTT4=
EXTT5=
EXTT6=
EXTT7=
EXTT8=
EXTT9=
EXTT10=
EXTT11=
PLAYORDER=
